<?xml version="1.0" encoding="UTF-8"?>
<!DOCTYPE svg PUBLIC "-//W3C//DTD SVG 1.1//EN" "http://www.w3.org/Graphics/SVG/1.1/DTD/svg11.dtd">
<svg version="1.2" width="137.16mm" height="137.16mm" viewBox="0 0 13716 13716" preserveAspectRatio="xMidYMid" fill-rule="evenodd" stroke-width="28.222" stroke-linejoin="round" xmlns="http://www.w3.org/2000/svg" xmlns:ooo="http://xml.openoffice.org/svg/export" xmlns:xlink="http://www.w3.org/1999/xlink" xmlns:presentation="http://sun.com/xmlns/staroffice/presentation" xmlns:smil="http://www.w3.org/2001/SMIL20/" xmlns:anim="urn:oasis:names:tc:opendocument:xmlns:animation:1.0" xmlns:svg="urn:oasis:names:tc:opendocument:xmlns:svg-compatible:1.0" xml:space="preserve">
 <defs class="ClipPathGroup">
  <clipPath id="presentation_clip_path" clipPathUnits="userSpaceOnUse">
   <rect x="0" y="0" width="13716" height="13716"/>
  </clipPath>
  <clipPath id="presentation_clip_path_shrink" clipPathUnits="userSpaceOnUse">
   <rect x="13" y="13" width="13689" height="13689"/>
  </clipPath>
 </defs>
 <defs class="TextShapeIndex">
  <g ooo:slide="id1" ooo:id-list="id3"/>
 </defs>
 <defs class="EmbeddedBulletChars">
  <g id="bullet-char-template-57356" transform="scale(0.00048828125,-0.00048828125)">
   <path d="M 580,1141 L 1163,571 580,0 -4,571 580,1141 Z"/>
  </g>
  <g id="bullet-char-template-57354" transform="scale(0.00048828125,-0.00048828125)">
   <path d="M 8,1128 L 1137,1128 1137,0 8,0 8,1128 Z"/>
  </g>
  <g id="bullet-char-template-10146" transform="scale(0.00048828125,-0.00048828125)">
   <path d="M 174,0 L 602,739 174,1481 1456,739 174,0 Z M 1358,739 L 309,1346 659,739 1358,739 Z"/>
  </g>
  <g id="bullet-char-template-10132" transform="scale(0.00048828125,-0.00048828125)">
   <path d="M 2015,739 L 1276,0 717,0 1260,543 174,543 174,936 1260,936 717,1481 1274,1481 2015,739 Z"/>
  </g>
  <g id="bullet-char-template-10007" transform="scale(0.00048828125,-0.00048828125)">
   <path d="M 0,-2 C -7,14 -16,27 -25,37 L 356,567 C 262,823 215,952 215,954 215,979 228,992 255,992 264,992 276,990 289,987 310,991 331,999 354,1012 L 381,999 492,748 772,1049 836,1024 860,1049 C 881,1039 901,1025 922,1006 886,937 835,863 770,784 769,783 710,716 594,584 L 774,223 C 774,196 753,168 711,139 L 727,119 C 717,90 699,76 672,76 641,76 570,178 457,381 L 164,-76 C 142,-110 111,-127 72,-127 30,-127 9,-110 8,-76 1,-67 -2,-52 -2,-32 -2,-23 -1,-13 0,-2 Z"/>
  </g>
  <g id="bullet-char-template-10004" transform="scale(0.00048828125,-0.00048828125)">
   <path d="M 285,-33 C 182,-33 111,30 74,156 52,228 41,333 41,471 41,549 55,616 82,672 116,743 169,778 240,778 293,778 328,747 346,684 L 369,508 C 377,444 397,411 428,410 L 1163,1116 C 1174,1127 1196,1133 1229,1133 1271,1133 1292,1118 1292,1087 L 1292,965 C 1292,929 1282,901 1262,881 L 442,47 C 390,-6 338,-33 285,-33 Z"/>
  </g>
  <g id="bullet-char-template-9679" transform="scale(0.00048828125,-0.00048828125)">
   <path d="M 813,0 C 632,0 489,54 383,161 276,268 223,411 223,592 223,773 276,916 383,1023 489,1130 632,1184 813,1184 992,1184 1136,1130 1245,1023 1353,916 1407,772 1407,592 1407,412 1353,268 1245,161 1136,54 992,0 813,0 Z"/>
  </g>
  <g id="bullet-char-template-8226" transform="scale(0.00048828125,-0.00048828125)">
   <path d="M 346,457 C 273,457 209,483 155,535 101,586 74,649 74,723 74,796 101,859 155,911 209,963 273,989 346,989 419,989 480,963 531,910 582,859 608,796 608,723 608,648 583,586 532,535 482,483 420,457 346,457 Z"/>
  </g>
  <g id="bullet-char-template-8211" transform="scale(0.00048828125,-0.00048828125)">
   <path d="M -4,459 L 1135,459 1135,606 -4,606 -4,459 Z"/>
  </g>
  <g id="bullet-char-template-61548" transform="scale(0.00048828125,-0.00048828125)">
   <path d="M 173,740 C 173,903 231,1043 346,1159 462,1274 601,1332 765,1332 928,1332 1067,1274 1183,1159 1299,1043 1357,903 1357,740 1357,577 1299,437 1183,322 1067,206 928,148 765,148 601,148 462,206 346,322 231,437 173,577 173,740 Z"/>
  </g>
 </defs>
 <g>
  <g id="id2" class="Master_Slide">
   <g id="bg-id2" class="Background"/>
   <g id="bo-id2" class="BackgroundObjects"/>
  </g>
 </g>
 <g class="SlideGroup">
  <g>
   <g id="container-id1">
    <g id="id1" class="Slide" clip-path="url(#presentation_clip_path)">
     <g class="Page">
      <g class="com.sun.star.drawing.ClosedBezierShape">
       <g id="id3">
        <rect class="BoundingBox" stroke="none" fill="none" x="1521" y="1780" width="11197" height="10745"/>
        <path fill="rgb(35,31,32)" stroke="none" d="M 7802,5210 C 7697,5378 7634,5578 7634,5778 7634,6041 7739,6304 7929,6494 8118,6683 8381,6788 8644,6788 8844,6788 9044,6725 9212,6620 9381,6504 9507,6346 9581,6157 9654,5978 9675,5768 9644,5578 9602,5378 9507,5200 9360,5063 9223,4905 9044,4810 8844,4768 8644,4737 8444,4758 8255,4831 8076,4905 7918,5042 7802,5210 Z M 9770,5031 C 9917,5252 9991,5505 9991,5778 9991,6136 9844,6473 9591,6725 9339,6978 9002,7125 8644,7125 8381,7125 8118,7041 7897,6894 7676,6746 7497,6536 7403,6294 7297,6041 7276,5768 7318,5515 7371,5252 7508,5010 7697,4810 7876,4621 8118,4495 8381,4442 8644,4389 8918,4421 9160,4516 9402,4621 9612,4789 9770,5031 Z M 4898,9924 L 4236,9650 C 4330,9850 4478,10018 4667,10134 4856,10250 5077,10303 5298,10303 5519,10292 5730,10218 5919,10092 6098,9966 6235,9787 6319,9587 6403,9377 6424,9156 6382,8935 6329,8724 6224,8524 6077,8367 5919,8209 5719,8093 5509,8051 5288,7998 5067,8019 4856,8093 L 5540,8377 C 5740,8472 5898,8630 5972,8840 6056,9040 6056,9261 5972,9471 5887,9671 5730,9829 5530,9913 5319,9997 5098,10008 4898,9924 Z M 12200,3306 L 12106,3306 12106,3137 12200,3137 C 12274,3137 12306,3169 12306,3221 12306,3232 12295,3243 12295,3253 12285,3264 12285,3274 12274,3285 12264,3295 12253,3306 12243,3306 12221,3306 12211,3306 12200,3306 Z M 12379,3221 C 12379,3148 12337,3074 12200,3074 L 12022,3074 12022,3590 12106,3590 12106,3379 12211,3379 12316,3590 12411,3590 12285,3358 C 12316,3348 12337,3327 12358,3306 12369,3274 12379,3243 12379,3221 Z M 11832,3579 C 11790,3506 11759,3421 11759,3337 11748,3285 11759,3221 11780,3169 11801,3106 11843,3064 11874,3022 11916,2979 11969,2948 12022,2927 12085,2906 12137,2895 12200,2895 12285,2895 12369,2916 12442,2969 12516,3011 12569,3085 12600,3158 12642,3243 12642,3327 12632,3421 12611,3506 12569,3579 12516,3642 12453,3705 12369,3748 12285,3758 12200,3779 12116,3769 12032,3737 11958,3705 11885,3653 11832,3579 Z M 12632,3621 C 12684,3537 12716,3442 12716,3337 12716,3274 12705,3200 12684,3137 12653,3074 12621,3011 12569,2969 12516,2916 12463,2885 12400,2853 12337,2832 12264,2822 12200,2822 12095,2822 12001,2853 11906,2906 11822,2958 11759,3043 11716,3137 11685,3232 11674,3337 11685,3432 11706,3537 11759,3632 11832,3705 11906,3779 11990,3821 12095,3842 12200,3863 12295,3853 12390,3821 12485,3779 12569,3716 12632,3621 Z M 3236,3200 C 4236,2296 5530,1780 6877,1780 L 6877,1791 C 7876,1791 8855,2064 9696,2590 10549,3116 11232,3874 11674,4768 12127,5662 12306,6662 12211,7662 12127,8651 11759,9598 11159,10397 10549,11186 9738,11807 8812,12165 7876,12523 6866,12617 5887,12428 4909,12249 3994,11786 3257,11113 2521,10439 1984,9577 1710,8619 L 3773,9471 C 3846,9840 4057,10166 4362,10387 4667,10608 5035,10713 5414,10671 5782,10639 6129,10460 6382,10187 6635,9903 6782,9545 6782,9166 L 6782,9093 8602,7798 8644,7798 C 9044,7798 9433,7683 9770,7462 10096,7230 10359,6915 10517,6546 10664,6178 10706,5778 10633,5378 10549,4989 10359,4621 10075,4337 9791,4053 9433,3863 9044,3779 8644,3705 8244,3748 7866,3895 7497,4053 7182,4305 6961,4642 6740,4989 6624,5378 6624,5778 L 6624,5799 5340,7651 5256,7651 C 4951,7651 4656,7735 4404,7914 L 1521,6725 C 1637,5378 2236,4116 3236,3200 Z"/>
       </g>
      </g>
     </g>
    </g>
   </g>
  </g>
 </g>
</svg>